<svg width="353" height="75" viewBox="0 0 353 75" fill="none" xmlns="http://www.w3.org/2000/svg">
<g clip-path="url(#clip0)">
<circle cx="37.5" cy="37.5" r="36.25" fill="#19A559" stroke="#333333" stroke-width="2.5"/>
<rect x="34.7161" y="5.00003" width="8.33333" height="33.3333" transform="rotate(45 34.7161 5.00003)" fill="#333333"/>
<rect x="40.6086" y="46.2369" width="8.33333" height="33.3333" transform="rotate(135 40.6086 46.2369)" fill="#333333"/>
<rect x="40.5801" y="69.6295" width="8.33333" height="33.3333" transform="rotate(-135 40.5801 69.6295)" fill="#333333"/>
<rect x="34.6875" y="28.3925" width="8.33333" height="33.3333" transform="rotate(-45 34.6875 28.3925)" fill="#333333"/>
<path d="M95.6304 38.4792H87.5378V47H84.0439V26.8927H96.8181V29.7099H87.5378V35.6896H95.6304V38.4792ZM97.5777 43.4646C98.2037 43.4646 98.6871 43.6442 99.0277 44.0032C99.3683 44.3531 99.5387 44.795 99.5387 45.329C99.5387 45.8538 99.3683 46.2911 99.0277 46.6409C98.6871 46.9816 98.2037 47.1519 97.5777 47.1519C96.9792 47.1519 96.5051 46.9816 96.1552 46.6409C95.8054 46.3003 95.6304 45.863 95.6304 45.329C95.6304 44.795 95.8008 44.3531 96.1414 44.0032C96.4821 43.6442 96.9608 43.4646 97.5777 43.4646ZM107.203 44.2104H116.332V47H103.709V26.8927H107.203V44.2104ZM141.825 42.0284L144.918 26.8927H148.385L143.744 47H140.402L136.577 32.32L132.669 47H129.313L124.673 26.8927H128.139L131.26 42.0008L135.099 26.8927H138.027L141.825 42.0284ZM156.753 47.2762C154.627 47.2762 152.9 46.6087 151.575 45.2738C150.258 43.9296 149.6 42.1435 149.6 39.9155V39.5012C149.6 38.0097 149.885 36.6793 150.456 35.5101C151.036 34.3316 151.846 33.4156 152.887 32.7619C153.927 32.1082 155.087 31.7814 156.367 31.7814C158.401 31.7814 159.971 32.4305 161.076 33.7286C162.19 35.0268 162.747 36.8635 162.747 39.2388V40.5922H152.983C153.085 41.8259 153.494 42.8018 154.212 43.5199C154.94 44.238 155.851 44.5971 156.947 44.5971C158.484 44.5971 159.736 43.9756 160.703 42.7327L162.512 44.459C161.914 45.352 161.113 46.0471 160.109 46.5443C159.115 47.0322 157.996 47.2762 156.753 47.2762ZM156.353 34.4744C155.432 34.4744 154.687 34.7966 154.116 35.4411C153.554 36.0855 153.195 36.9832 153.039 38.134H159.433V37.8854C159.359 36.7622 159.06 35.9152 158.535 35.3444C158.01 34.7644 157.283 34.4744 156.353 34.4744ZM178.476 39.6807C178.476 42.0008 177.956 43.8467 176.916 45.2185C175.885 46.5903 174.462 47.2762 172.649 47.2762C170.899 47.2762 169.537 46.6455 168.561 45.3842L168.395 47H165.357V25.7879H168.713V33.4938C169.68 32.3522 170.982 31.7814 172.621 31.7814C174.444 31.7814 175.876 32.4581 176.916 33.8115C177.956 35.1649 178.476 37.0568 178.476 39.4874V39.6807ZM175.121 39.3907C175.121 37.7703 174.835 36.5551 174.264 35.7449C173.694 34.9347 172.865 34.5296 171.779 34.5296C170.324 34.5296 169.302 35.1649 168.713 36.4354V42.5946C169.311 43.8928 170.342 44.5418 171.806 44.5418C172.856 44.5418 173.666 44.1505 174.237 43.368C174.808 42.5854 175.102 41.4024 175.121 39.8188V39.3907ZM188.668 47V26.8927H194.607C196.383 26.8927 197.958 27.2886 199.33 28.0803C200.711 28.8721 201.779 29.9953 202.533 31.45C203.288 32.9046 203.666 34.571 203.666 36.4492V37.4573C203.666 39.3631 203.284 41.0387 202.52 42.4841C201.765 43.9296 200.683 45.0436 199.274 45.8262C197.875 46.6087 196.268 47 194.455 47H188.668ZM192.162 29.7099V44.2104H194.441C196.273 44.2104 197.677 43.6396 198.653 42.4979C199.638 41.3471 200.14 39.6991 200.158 37.554V36.4354C200.158 34.2534 199.684 32.587 198.736 31.4362C197.787 30.2853 196.411 29.7099 194.607 29.7099H192.162ZM213.402 47.2762C211.275 47.2762 209.549 46.6087 208.223 45.2738C206.907 43.9296 206.248 42.1435 206.248 39.9155V39.5012C206.248 38.0097 206.534 36.6793 207.105 35.5101C207.685 34.3316 208.495 33.4156 209.535 32.7619C210.575 32.1082 211.736 31.7814 213.015 31.7814C215.05 31.7814 216.62 32.4305 217.724 33.7286C218.838 35.0268 219.395 36.8635 219.395 39.2388V40.5922H209.632C209.733 41.8259 210.143 42.8018 210.861 43.5199C211.588 44.238 212.5 44.5971 213.595 44.5971C215.133 44.5971 216.385 43.9756 217.352 42.7327L219.161 44.459C218.562 45.352 217.761 46.0471 216.758 46.5443C215.763 47.0322 214.645 47.2762 213.402 47.2762ZM213.001 34.4744C212.081 34.4744 211.335 34.7966 210.764 35.4411C210.203 36.0855 209.844 36.9832 209.687 38.134H216.081V37.8854C216.007 36.7622 215.708 35.9152 215.183 35.3444C214.659 34.7644 213.931 34.4744 213.001 34.4744ZM227.088 42.7465L230.25 32.0576H233.716L228.538 47H225.624L220.404 32.0576H223.884L227.088 42.7465ZM242.21 47.2762C240.083 47.2762 238.357 46.6087 237.031 45.2738C235.714 43.9296 235.056 42.1435 235.056 39.9155V39.5012C235.056 38.0097 235.341 36.6793 235.912 35.5101C236.492 34.3316 237.302 33.4156 238.343 32.7619C239.383 32.1082 240.543 31.7814 241.823 31.7814C243.858 31.7814 245.427 32.4305 246.532 33.7286C247.646 35.0268 248.203 36.8635 248.203 39.2388V40.5922H238.439C238.541 41.8259 238.95 42.8018 239.668 43.5199C240.396 44.238 241.307 44.5971 242.403 44.5971C243.94 44.5971 245.192 43.9756 246.159 42.7327L247.968 44.459C247.37 45.352 246.569 46.0471 245.565 46.5443C244.571 47.0322 243.452 47.2762 242.21 47.2762ZM241.809 34.4744C240.888 34.4744 240.143 34.7966 239.572 35.4411C239.01 36.0855 238.651 36.9832 238.495 38.134H244.889V37.8854C244.815 36.7622 244.516 35.9152 243.991 35.3444C243.466 34.7644 242.739 34.4744 241.809 34.4744ZM254.39 47H251.034V25.7879H254.39V47ZM257.428 39.3907C257.428 37.9268 257.718 36.6103 258.298 35.4411C258.878 34.2626 259.693 33.3603 260.743 32.7343C261.792 32.099 262.998 31.7814 264.361 31.7814C266.377 31.7814 268.011 32.4305 269.263 33.7286C270.525 35.0268 271.206 36.7484 271.307 38.8935L271.321 39.6807C271.321 41.1538 271.036 42.4703 270.465 43.6304C269.903 44.7904 269.093 45.6881 268.034 46.3233C266.985 46.9586 265.769 47.2762 264.388 47.2762C262.28 47.2762 260.591 46.5765 259.32 45.1771C258.059 43.7685 257.428 41.8949 257.428 39.5564V39.3907ZM260.784 39.6807C260.784 41.2182 261.102 42.4243 261.737 43.2989C262.372 44.1644 263.256 44.5971 264.388 44.5971C265.521 44.5971 266.4 44.1551 267.026 43.2713C267.661 42.3875 267.979 41.0939 267.979 39.3907C267.979 37.8808 267.652 36.6839 266.998 35.8001C266.354 34.9163 265.475 34.4744 264.361 34.4744C263.265 34.4744 262.395 34.9117 261.751 35.7863C261.106 36.6517 260.784 37.9499 260.784 39.6807ZM287.244 39.6807C287.244 41.9916 286.719 43.8375 285.67 45.2185C284.62 46.5903 283.211 47.2762 281.444 47.2762C279.805 47.2762 278.493 46.7376 277.508 45.6604V52.7449H274.152V32.0576H277.245L277.384 33.5767C278.369 32.3798 279.708 31.7814 281.402 31.7814C283.225 31.7814 284.652 32.4627 285.683 33.8253C286.724 35.1787 287.244 37.0614 287.244 39.4736V39.6807ZM283.902 39.3907C283.902 37.8992 283.603 36.7162 283.004 35.8415C282.415 34.9669 281.568 34.5296 280.463 34.5296C279.091 34.5296 278.106 35.0958 277.508 36.2282V42.857C278.115 44.017 279.11 44.5971 280.491 44.5971C281.559 44.5971 282.392 44.169 282.99 43.3127C283.598 42.4473 283.902 41.14 283.902 39.3907ZM293.251 32.0576L293.348 33.6181C294.397 32.3936 295.834 31.7814 297.657 31.7814C299.654 31.7814 301.022 32.5456 301.758 34.0739C302.845 32.5456 304.373 31.7814 306.343 31.7814C307.991 31.7814 309.216 32.2371 310.016 33.1486C310.827 34.0601 311.241 35.4042 311.259 37.1811V47H307.904V37.2778C307.904 36.3295 307.696 35.6344 307.282 35.1925C306.868 34.7506 306.182 34.5296 305.224 34.5296C304.46 34.5296 303.834 34.7367 303.346 35.151C302.868 35.5561 302.531 36.0901 302.338 36.753L302.352 47H298.996V37.1673C298.95 35.4088 298.052 34.5296 296.303 34.5296C294.959 34.5296 294.006 35.0774 293.445 36.173V47H290.089V32.0576H293.251ZM321.285 47.2762C319.159 47.2762 317.432 46.6087 316.107 45.2738C314.79 43.9296 314.132 42.1435 314.132 39.9155V39.5012C314.132 38.0097 314.417 36.6793 314.988 35.5101C315.568 34.3316 316.378 33.4156 317.419 32.7619C318.459 32.1082 319.619 31.7814 320.899 31.7814C322.933 31.7814 324.503 32.4305 325.608 33.7286C326.722 35.0268 327.279 36.8635 327.279 39.2388V40.5922H317.515C317.617 41.8259 318.026 42.8018 318.744 43.5199C319.472 44.238 320.383 44.5971 321.479 44.5971C323.016 44.5971 324.268 43.9756 325.235 42.7327L327.044 44.459C326.446 45.352 325.645 46.0471 324.641 46.5443C323.647 47.0322 322.528 47.2762 321.285 47.2762ZM320.885 34.4744C319.964 34.4744 319.219 34.7966 318.648 35.4411C318.086 36.0855 317.727 36.9832 317.571 38.134H323.965V37.8854C323.891 36.7622 323.592 35.9152 323.067 35.3444C322.542 34.7644 321.815 34.4744 320.885 34.4744ZM333.01 32.0576L333.107 33.7839C334.212 32.4489 335.662 31.7814 337.457 31.7814C340.569 31.7814 342.152 33.5629 342.208 37.1259V47H338.852V37.3192C338.852 36.3709 338.645 35.6712 338.23 35.2201C337.825 34.7598 337.158 34.5296 336.228 34.5296C334.874 34.5296 333.866 35.1418 333.203 36.3663V47H329.848V32.0576H333.01ZM349.844 28.4256V32.0576H352.482V34.5434H349.844V42.8846C349.844 43.4554 349.955 43.8697 350.176 44.1275C350.406 44.3761 350.811 44.5004 351.391 44.5004C351.778 44.5004 352.169 44.4544 352.565 44.3623V46.9586C351.801 47.1703 351.064 47.2762 350.355 47.2762C347.778 47.2762 346.489 45.8538 346.489 43.0089V34.5434H344.03V32.0576H346.489V28.4256H349.844Z" fill="#EEEEEE"/>
</g>
<defs>
<clipPath id="clip0">
<rect width="353" height="75" fill="white"/>
</clipPath>
</defs>
</svg>
